<?xml version="1.0" encoding="utf-8"?>
<!-- Generator: Adobe Illustrator 16.0.2, SVG Export Plug-In . SVG Version: 6.00 Build 0)  -->
<!DOCTYPE svg PUBLIC "-//W3C//DTD SVG 1.0//EN" "http://www.w3.org/TR/2001/REC-SVG-20010904/DTD/svg10.dtd">
<svg version="1.0" id="圖層_1" xmlns="http://www.w3.org/2000/svg" xmlns:xlink="http://www.w3.org/1999/xlink" x="0px" y="0px"
	 width="225.666px" height="35px" viewBox="0 0 225.666 35" enable-background="new 0 0 225.666 35" xml:space="preserve">
<g>
	<g>
		<path fill="#060606" d="M32.987,17.5c0,7.864-6.375,14.239-14.238,14.239c-7.864,0-14.24-6.375-14.24-14.239
			s6.375-14.239,14.24-14.239C26.613,3.261,32.987,9.636,32.987,17.5"/>
		<path fill="#F8CC2B" d="M32.963,18.292c-2.716,2.754-5.573,3.826-7.045,4.021c0.374-0.52,0.784-1.039,1.59-2.037
			c2.068-2.565,1.708-5.709,0.158-7.227c-1.068-1.046-2.503-1.826-4.153-2.299l2.732-5.354c-0.829-0.516-1.718-0.95-2.648-1.288
			l-3.135,6.138c-0.746-0.041-1.513-0.029-2.291,0.041C12.7,10.773,9.413,14.028,8.16,16.912c-0.747,1.719-0.722,3.458,0.078,5.033
			c1.028,2.024,3.274,3.561,6.162,4.209c0.107,0.022,0.217,0.035,0.322,0.035c0.543,0,1.056-0.303,1.313-0.804l6.106-11.957
			c1.417,0.313,2.623,0.902,3.461,1.724c0.334,0.327,0.86,1.71-0.396,3.281l-0.181,0.225c-1.796,2.246-2.698,3.372-2.483,4.678
			c0.069,0.426,0.303,1.03,1.013,1.484c1.46,0.938,4.854,0.439,8.338-1.848C32.5,21.52,32.874,19.943,32.963,18.292 M13.963,22.969
			c-1.472-0.523-2.593-1.367-3.1-2.357c-0.394-0.774-0.394-1.625-0.004-2.524c0.917-2.108,3.389-4.494,7.57-4.866
			c0.178-0.016,0.356-0.028,0.53-0.037L13.963,22.969z"/>
	</g>
	<g>
		<path d="M47.469,9.497h3.159l-3.26,15.543h-3.057c-3.324,0-5.104-1.465-5.104-4.205c0-3.41,2.742-6.087,6.233-6.087h0.955
			L47.469,9.497z M45.873,17.216h-0.536c-1.716,0-3.011,1.507-3.011,3.535c0,1.213,0.563,1.819,1.735,1.819h0.676L45.873,17.216z"/>
		<polygon points="52.456,9.497 55.867,9.497 54.493,16.003 60.538,16.003 61.891,9.497 65.28,9.497 62.002,25.04 58.614,25.04 
			59.932,18.805 53.908,18.805 52.589,25.04 49.181,25.04 		"/>
		<path d="M66.234,21.88c1.151,1.233,2.406,1.8,4.039,1.8c1.985,0,3.158-1.047,3.158-2.762c0-1.15-0.524-1.945-2.008-3.013
			l-1.402-1.004c-1.4-0.983-2.007-2.008-2.007-3.368c0-2.406,1.882-4.038,4.685-4.038c1.465,0,2.53,0.356,3.766,1.276L76.128,12.3
			c-1.066-1.087-2.134-1.589-3.451-1.589c-1.861,0-3.138,1.067-3.138,2.594c0,1.108,0.503,1.799,2.176,2.95
			c1.19,0.815,1.757,1.296,2.238,1.882c0.669,0.754,1.004,1.674,1.004,2.721c0,2.488-1.987,4.184-4.896,4.184
			c-1.61,0-2.929-0.48-4.183-1.507L66.234,21.88z"/>
		<polygon points="79.109,9.497 80.594,9.497 79.115,16.61 87.399,16.61 88.877,9.497 90.363,9.497 87.085,25.04 85.599,25.04 
			87.126,17.844 78.843,17.844 77.317,25.04 75.832,25.04 		"/>
		<path d="M93.082,11.401c1.315-1.254,2.971-1.904,4.915-1.904c3.87,0,6.254,2.594,6.254,6.736c0,5.104-3.18,8.807-7.57,8.807
			c-3.85,0-6.276-2.615-6.276-6.757C90.404,15.563,91.387,13.053,93.082,11.401 M96.847,23.68c1.756,0,3.157-0.648,4.141-1.926
			c1.108-1.4,1.735-3.368,1.735-5.459c0-3.389-1.819-5.438-4.831-5.438c-3.514,0-5.961,3.013-5.961,7.301
			C91.931,21.65,93.75,23.68,96.847,23.68"/>
		<path d="M107.74,9.497c0,0,2.229-0.01,2.837-0.01c3.43,0,5.271,1.443,5.271,4.162c0,1.548-0.67,2.95-1.842,3.808
			c-1.107,0.814-2.468,1.17-4.496,1.17c-0.732,0-2.22,0-2.22,0l-1.37,6.413h-1.486L107.74,9.497z M107.547,17.413h1.92
			c1.483,0,2.468-0.188,3.263-0.606c1.005-0.564,1.589-1.652,1.589-3.011c0-2.093-1.295-3.097-3.932-3.097h-1.431L107.547,17.413z"
			/>
	</g>
	<g>
		<path d="M136.733,21.111l1.25,0.287c-0.22,1.037-0.544,2.063-0.973,3.078l-1.39-0.5C136.118,23.009,136.49,22.055,136.733,21.111z
			 M136.49,9.044h7.571v5.944h-3.057v1.325h3.021v1.289h-3.021v1.361h3.3v1.289h-8.127v-1.289h3.508v-1.361h-3.161v-1.289h3.161
			v-1.325h-3.195V9.044z M139.685,13.771v-3.509h-1.876v3.509H139.685z M138.834,10.799c0.369,0.776,0.618,1.492,0.745,2.148
			l-1.094,0.269c-0.081-0.608-0.271-1.325-0.573-2.148L138.834,10.799z M138.851,21.469l1.182,0.072
			c0.012,1.038,0.034,1.992,0.069,2.864l-1.477-0.126C138.73,23.432,138.805,22.496,138.851,21.469z M141.943,21.398
			c0.335,0.967,0.566,1.861,0.694,2.686l-1.25,0.322c-0.07-0.776-0.232-1.678-0.486-2.704L141.943,21.398z M141.004,12.858
			c0.128-0.31,0.23-0.584,0.313-0.824c0.128-0.417,0.237-0.829,0.33-1.235l0.99,0.412c0.058,0.012,0.093,0.024,0.104,0.036v-0.985
			h-1.736V12.858L141.004,12.858z M142.741,13.771v-2.274c-0.059,0.06-0.109,0.102-0.155,0.125
			c-0.175,0.478-0.411,1.009-0.713,1.593l-0.868-0.25v0.806H142.741z M143.957,21.111c0.439,0.92,0.74,1.767,0.902,2.543
			l-1.25,0.322c-0.093-0.729-0.324-1.582-0.694-2.562L143.957,21.111z M147.013,8.579l1.44,0.125
			c0.268,0.012,0.399,0.09,0.399,0.233c0,0.083-0.104,0.215-0.313,0.394v2.399h3.752v1.432h-3.752V16.6h3.301v7.95h-1.459v-0.896
			h-3.82v0.896h-1.459V16.6h1.91L147.013,8.579L147.013,8.579z M146.562,22.293h3.82v-4.262h-3.82V22.293z"/>
		<path d="M155.248,15.203h13.978v1.647h-13.978V15.203z"/>
		<path d="M170.459,9.617h15.698v1.647h-7.397v2.614c1.957,1.158,3.82,2.56,5.592,4.207l-1.302,1.235
			c-1.472-1.384-2.9-2.548-4.29-3.491v9.077h-1.736V11.265h-6.563L170.459,9.617L170.459,9.617z"/>
	</g>
	<circle cx="125.953" cy="16.263" r="2.25"/>
</g>
</svg>
