<?xml version="1.0" encoding="utf-8"?>
<!-- Generator: Adobe Illustrator 16.0.2, SVG Export Plug-In . SVG Version: 6.00 Build 0)  -->
<!DOCTYPE svg PUBLIC "-//W3C//DTD SVG 1.0//EN" "http://www.w3.org/TR/2001/REC-SVG-20010904/DTD/svg10.dtd">
<svg version="1.0" id="圖層_1" xmlns="http://www.w3.org/2000/svg" xmlns:xlink="http://www.w3.org/1999/xlink" x="0px" y="0px"
	 width="225.667px" height="35px" viewBox="0 0 225.667 35" enable-background="new 0 0 225.667 35" xml:space="preserve">
<g>
	<g>
		<path fill="#060606" d="M32.987,17.5c0,7.864-6.375,14.239-14.239,14.239S4.508,25.364,4.508,17.5S10.883,3.261,18.748,3.261
			S32.987,9.636,32.987,17.5"/>
		<path fill="#F8CC2B" d="M32.963,18.292c-2.716,2.754-5.573,3.826-7.045,4.021c0.374-0.52,0.784-1.039,1.59-2.038
			c2.068-2.565,1.708-5.709,0.158-7.226c-1.068-1.046-2.503-1.826-4.153-2.299l2.732-5.354c-0.829-0.516-1.717-0.95-2.648-1.288
			l-3.135,6.138c-0.746-0.041-1.513-0.029-2.291,0.041c-5.471,0.486-8.758,3.741-10.011,6.625c-0.747,1.719-0.721,3.458,0.079,5.033
			c1.028,2.025,3.274,3.561,6.162,4.209c0.107,0.023,0.216,0.036,0.322,0.036c0.543,0,1.056-0.303,1.313-0.804l6.107-11.957
			c1.417,0.313,2.623,0.902,3.461,1.724c0.334,0.327,0.86,1.71-0.396,3.281l-0.18,0.224c-1.796,2.246-2.699,3.372-2.484,4.678
			c0.07,0.426,0.303,1.03,1.013,1.484c1.46,0.938,4.853,0.44,8.338-1.847C32.5,21.519,32.874,19.944,32.963,18.292 M13.963,22.969
			c-1.472-0.523-2.593-1.367-3.099-2.357c-0.394-0.775-0.394-1.625-0.004-2.525c0.917-2.108,3.388-4.494,7.57-4.866
			c0.178-0.016,0.356-0.028,0.53-0.037L13.963,22.969z"/>
	</g>
	<g>
		<path d="M47.469,9.497h3.159L47.368,25.04h-3.056c-3.324,0-5.104-1.465-5.104-4.205c0-3.41,2.742-6.087,6.234-6.087h0.955
			L47.469,9.497z M45.873,17.216h-0.536c-1.716,0-3.011,1.506-3.011,3.535c0,1.213,0.564,1.82,1.736,1.82h0.676L45.873,17.216z"/>
		<polygon points="52.456,9.497 55.867,9.497 54.493,16.003 60.538,16.003 61.891,9.497 65.28,9.497 62.002,25.04 58.614,25.04 
			59.932,18.805 53.908,18.805 52.589,25.04 49.181,25.04 		"/>
		<path d="M66.234,21.88c1.151,1.233,2.406,1.8,4.039,1.8c1.985,0,3.158-1.047,3.158-2.762c0-1.15-0.524-1.945-2.008-3.013
			l-1.402-1.004c-1.401-0.983-2.007-2.008-2.007-3.368c0-2.406,1.882-4.038,4.685-4.038c1.464,0,2.53,0.356,3.765,1.276L76.128,12.3
			c-1.066-1.087-2.134-1.589-3.451-1.589c-1.861,0-3.138,1.067-3.138,2.594c0,1.108,0.503,1.799,2.176,2.95
			c1.191,0.815,1.757,1.296,2.238,1.882c0.669,0.753,1.004,1.673,1.004,2.72c0,2.489-1.987,4.184-4.895,4.184
			c-1.611,0-2.929-0.481-4.183-1.507L66.234,21.88z"/>
		<polygon points="79.109,9.497 80.594,9.497 79.115,16.61 87.399,16.61 88.877,9.497 90.363,9.497 87.085,25.04 85.599,25.04 
			87.126,17.844 78.843,17.844 77.317,25.04 75.832,25.04 		"/>
		<path d="M93.082,11.401c1.316-1.254,2.971-1.904,4.915-1.904c3.87,0,6.254,2.594,6.254,6.736c0,5.104-3.179,8.807-7.57,8.807
			c-3.85,0-6.276-2.615-6.276-6.757C90.404,15.563,91.387,13.053,93.082,11.401 M96.847,23.679c1.756,0,3.157-0.648,4.141-1.925
			c1.108-1.4,1.735-3.368,1.735-5.459c0-3.389-1.819-5.438-4.831-5.438c-3.514,0-5.961,3.013-5.961,7.301
			C91.931,21.65,93.75,23.679,96.847,23.679"/>
		<path d="M107.74,9.497c0,0,2.229-0.01,2.836-0.01c3.43,0,5.271,1.443,5.271,4.162c0,1.548-0.67,2.95-1.842,3.808
			c-1.107,0.815-2.468,1.17-4.496,1.17c-0.732,0-2.22,0-2.22,0l-1.37,6.413h-1.486L107.74,9.497z M107.547,17.413h1.92
			c1.483,0,2.468-0.188,3.263-0.606c1.005-0.564,1.589-1.652,1.589-3.011c0-2.093-1.295-3.097-3.932-3.097h-1.431L107.547,17.413z"
			/>
	</g>
	<g>
		<path d="M125.677,8.364l1.599,0.215c0.208,0.012,0.313,0.089,0.313,0.232c0,0.132-0.128,0.305-0.383,0.52
			c-0.115,0.895-0.237,1.754-0.364,2.578h3.387c-0.163,3.127-0.464,5.455-0.903,6.982c-0.093,0.275-0.186,0.537-0.278,0.788
			c0.729,0.549,1.413,1.17,2.05,1.862l-1.233,1.217c-0.556-0.62-1.071-1.146-1.546-1.575c-0.301,0.513-0.631,0.955-0.989,1.325
			c-0.66,0.739-1.661,1.516-3.005,2.327l-1.285-1.235c1.228-0.621,2.137-1.229,2.727-1.826c0.51-0.453,0.938-0.99,1.285-1.611
			c-0.602-0.418-1.262-0.788-1.979-1.11c-0.162,0.394-0.33,0.794-0.504,1.2l-1.458-0.627c0.671-1.433,1.157-2.751,1.458-3.957
			c0.186-0.668,0.354-1.42,0.504-2.256h-1.823v-1.504h2.049C125.435,10.847,125.562,9.665,125.677,8.364z M127.692,18.766
			c0.429-1.277,0.741-3.062,0.938-5.353h-2.032c-0.15,0.835-0.313,1.635-0.486,2.399c-0.162,0.633-0.354,1.265-0.573,1.897
			C126.326,18.02,127.043,18.372,127.692,18.766z M137.834,9.528c0.15,0,0.295,0.054,0.434,0.161l0.868,0.626
			c0.104,0.084,0.156,0.167,0.156,0.251c0,0.155-0.121,0.311-0.364,0.465l-3.421,3.563v1.969h3.716v1.504h-3.716v4.852
			c0,0.752-0.237,1.308-0.712,1.665c-0.383,0.358-1.372,0.537-2.97,0.537l-0.66-1.683h1.754c0.613,0,0.943-0.286,0.99-0.859v-4.512
			h-3.717v-1.504h3.717v-3.115l0.625,0.072l1.945-2.363h-5.593V9.725h6.495L137.834,9.528z"/>
		<path d="M140.163,16.922h6.529v7.788h-1.528v-0.984h-3.473v0.984h-1.528V16.922z M141.691,22.221h3.473v-3.795h-3.473V22.221z
			 M143.045,9.259h8.892v6.374h-8.892V9.259z M150.339,14.129v-3.366h-5.696v3.366H150.339z M148.29,16.922h6.6v7.788h-1.528v-0.984
			h-3.543v0.984h-1.528V16.922z M149.818,22.221h3.543v-3.795h-3.543V22.221z"/>
	</g>
	<g>
		<path d="M171.733,21.112l1.25,0.286c-0.22,1.038-0.544,2.064-0.973,3.079l-1.389-0.501
			C171.119,23.009,171.49,22.054,171.733,21.112z M171.49,9.044h7.571v5.944h-3.057v1.325h3.022v1.289h-3.022v1.361h3.3v1.289
			h-8.127v-1.289h3.508v-1.361h-3.161v-1.289h3.161v-1.325h-3.195V9.044z M174.685,13.771v-3.509h-1.876v3.509H174.685z
			 M173.834,10.799c0.37,0.776,0.619,1.492,0.746,2.148l-1.094,0.269c-0.081-0.608-0.272-1.325-0.573-2.148L173.834,10.799z
			 M173.851,21.469l1.182,0.072c0.011,1.038,0.034,1.992,0.069,2.864l-1.477-0.126C173.73,23.432,173.805,22.496,173.851,21.469z
			 M176.943,21.398c0.335,0.967,0.566,1.862,0.694,2.686l-1.25,0.322c-0.07-0.776-0.232-1.677-0.486-2.704L176.943,21.398z
			 M176.004,12.858c0.128-0.31,0.231-0.584,0.313-0.824c0.128-0.417,0.237-0.829,0.33-1.235l0.99,0.412
			c0.058,0.012,0.093,0.024,0.104,0.036v-0.985h-1.737V12.858z M177.742,13.771v-2.274c-0.059,0.06-0.11,0.102-0.156,0.125
			c-0.174,0.478-0.411,1.009-0.712,1.593l-0.869-0.25v0.806H177.742z M178.958,21.112c0.439,0.919,0.74,1.766,0.902,2.542
			l-1.25,0.322c-0.093-0.729-0.324-1.582-0.694-2.561L178.958,21.112z M182.013,8.579l1.441,0.125
			c0.267,0.012,0.399,0.09,0.399,0.233c0,0.083-0.104,0.215-0.313,0.394v2.399h3.751v1.432h-3.751V16.6h3.3v7.95h-1.459v-0.896
			h-3.82v0.896h-1.459V16.6h1.91V8.579z M181.562,22.293h3.82v-4.262h-3.82V22.293z"/>
		<path d="M190.249,15.203h13.977v1.647h-13.977V15.203z"/>
		<path d="M205.459,9.617h15.699v1.647h-7.398v2.614c1.957,1.158,3.821,2.56,5.592,4.207l-1.302,1.235
			c-1.471-1.384-2.9-2.548-4.29-3.491v9.077h-1.736V11.265h-6.564V9.617z"/>
	</g>
	<circle cx="162.954" cy="16.263" r="2.25"/>
</g>
</svg>
