<?xml version="1.0" encoding="utf-8"?>
<!-- Generator: Adobe Illustrator 16.0.2, SVG Export Plug-In . SVG Version: 6.00 Build 0)  -->
<!DOCTYPE svg PUBLIC "-//W3C//DTD SVG 1.0//EN" "http://www.w3.org/TR/2001/REC-SVG-20010904/DTD/svg10.dtd">
<svg version="1.0" id="圖層_1" xmlns="http://www.w3.org/2000/svg" xmlns:xlink="http://www.w3.org/1999/xlink" x="0px" y="0px"
	 width="150px" height="50px" viewBox="0 0 150 50" enable-background="new 0 0 150 50" xml:space="preserve">
<g>
	<g>
		<path fill="#0C0C0C" d="M22.466,26.732c0,5.928-4.804,10.734-10.732,10.734S1,32.66,1,26.732C1,20.806,5.806,16,11.734,16
			C17.662,16,22.466,20.806,22.466,26.732"/>
		<path fill="#F7CC28" d="M22.448,27.33c-2.046,2.076-4.199,2.885-5.309,3.03c0.282-0.392,0.591-0.783,1.198-1.535
			c1.56-1.934,1.289-4.302,0.12-5.447c-0.805-0.789-1.886-1.377-3.131-1.733l2.061-4.036c-0.625-0.389-1.296-0.716-1.997-0.972
			l-2.363,4.627c-0.563-0.031-1.14-0.021-1.727,0.03c-4.124,0.368-6.602,2.82-7.546,4.995c-0.563,1.295-0.545,2.607,0.058,3.794
			c0.775,1.525,2.469,2.685,4.646,3.173c0.08,0.017,0.164,0.026,0.243,0.026c0.41,0,0.795-0.229,0.989-0.606l4.604-9.013
			c1.067,0.236,1.977,0.68,2.609,1.3c0.251,0.246,0.648,1.288-0.299,2.473l-0.136,0.168c-1.354,1.693-2.034,2.542-1.872,3.527
			c0.051,0.321,0.229,0.777,0.764,1.118c1.101,0.707,3.659,0.33,6.286-1.393C22.1,29.764,22.382,28.574,22.448,27.33 M8.127,30.856
			c-1.11-0.394-1.955-1.032-2.337-1.777c-0.297-0.583-0.297-1.225-0.003-1.903c0.691-1.588,2.555-3.386,5.707-3.667
			c0.134-0.011,0.268-0.021,0.399-0.028L8.127,30.856z"/>
	</g>
	<g>
		<path d="M33.271,19.543h2.837L33.18,33.509h-2.747c-2.986,0-4.585-1.317-4.585-3.779c0-3.063,2.463-5.468,5.6-5.468h0.857
			L33.271,19.543z M31.837,26.477h-0.481c-1.542,0-2.706,1.355-2.706,3.179c0,1.088,0.506,1.634,1.559,1.634h0.607L31.837,26.477z"
			/>
		<polygon points="37.751,19.543 40.816,19.543 39.582,25.389 45.012,25.389 46.228,19.543 49.273,19.543 46.328,33.509 
			43.283,33.509 44.468,27.905 39.057,27.905 37.87,33.509 34.809,33.509 		"/>
		<path d="M50.13,30.669c1.034,1.108,2.162,1.615,3.629,1.615c1.782,0,2.837-0.938,2.837-2.479c0-1.033-0.472-1.748-1.805-2.708
			l-1.259-0.902c-1.258-0.883-1.804-1.804-1.804-3.026c0-2.162,1.692-3.627,4.21-3.627c1.315,0,2.272,0.32,3.383,1.146l-0.303,1.373
			c-0.958-0.977-1.917-1.427-3.1-1.427c-1.672,0-2.82,0.958-2.82,2.331c0,0.996,0.453,1.616,1.955,2.65
			c1.069,0.733,1.58,1.163,2.011,1.69c0.6,0.677,0.902,1.504,0.902,2.443c0,2.236-1.785,3.762-4.399,3.762
			c-1.446,0-2.631-0.433-3.758-1.354L50.13,30.669z"/>
		<polygon points="61.697,19.543 63.031,19.543 61.704,25.933 69.145,25.933 70.474,19.543 71.809,19.543 68.864,33.509 
			67.529,33.509 68.9,27.042 61.459,27.042 60.087,33.509 58.753,33.509 		"/>
		<path d="M74.251,21.253c1.181-1.126,2.669-1.71,4.417-1.71c3.478,0,5.617,2.33,5.617,6.051c0,4.587-2.856,7.915-6.8,7.915
			c-3.46,0-5.64-2.351-5.64-6.072C71.846,24.993,72.728,22.738,74.251,21.253 M77.634,32.284c1.579,0,2.836-0.581,3.72-1.729
			c0.995-1.258,1.561-3.024,1.561-4.903c0-3.046-1.634-4.887-4.341-4.887c-3.158,0-5.355,2.708-5.355,6.56
			C73.218,30.463,74.851,32.284,77.634,32.284"/>
		<path d="M87.421,19.543c0,0,2.002-0.009,2.55-0.009c3.081,0,4.736,1.296,4.736,3.739c0,1.391-0.604,2.651-1.656,3.422
			c-0.995,0.732-2.218,1.051-4.04,1.051c-0.658,0-1.994,0-1.994,0l-1.231,5.763h-1.336L87.421,19.543z M87.247,26.657h1.726
			c1.333,0,2.218-0.171,2.932-0.546c0.902-0.506,1.427-1.485,1.427-2.705c0-1.881-1.163-2.783-3.533-2.783h-1.285L87.247,26.657z"/>
	</g>
	<g>
		<path d="M105.931,29.978l1.123,0.258c-0.198,0.933-0.488,1.854-0.875,2.767l-1.248-0.45
			C105.378,31.683,105.712,30.825,105.931,29.978z M105.712,19.136h6.803v5.34h-2.747v1.19h2.714v1.158h-2.714v1.224h2.965v1.157
			h-7.302v-1.157h3.152v-1.224h-2.84v-1.158h2.84v-1.19h-2.871V19.136L105.712,19.136z M108.583,23.383V20.23h-1.687v3.153H108.583z
			 M107.817,20.712c0.332,0.698,0.556,1.341,0.67,1.931l-0.982,0.241c-0.075-0.545-0.244-1.19-0.517-1.93L107.817,20.712z
			 M107.832,30.3l1.063,0.064c0.011,0.933,0.03,1.79,0.063,2.572l-1.328-0.112C107.725,32.063,107.793,31.222,107.832,30.3z
			 M110.61,30.235c0.302,0.869,0.51,1.672,0.624,2.414l-1.122,0.289c-0.063-0.698-0.208-1.507-0.437-2.428L110.61,30.235z
			 M109.768,22.563c0.114-0.279,0.207-0.525,0.281-0.741c0.114-0.374,0.212-0.745,0.298-1.11l0.888,0.371
			c0.051,0.011,0.083,0.021,0.095,0.033V20.23h-1.562V22.563L109.768,22.563z M111.329,23.383V21.34
			c-0.054,0.054-0.1,0.091-0.141,0.112c-0.157,0.43-0.368,0.907-0.64,1.431l-0.781-0.225v0.725H111.329z M112.42,29.978
			c0.395,0.827,0.665,1.589,0.811,2.286l-1.123,0.288c-0.082-0.654-0.291-1.421-0.624-2.302L112.42,29.978z M115.166,18.718
			l1.293,0.112c0.241,0.011,0.36,0.082,0.36,0.21c0,0.075-0.094,0.193-0.282,0.354v2.156h3.371v1.286h-3.371v3.088h2.966v7.144
			h-1.313v-0.805h-3.431v0.805h-1.311v-7.144h1.717V18.718L115.166,18.718z M114.76,31.04h3.433v-3.829h-3.433V31.04z"/>
		<path d="M122.565,24.67h12.558v1.479h-12.558V24.67z"/>
		<path d="M135.211,19.651h14.104v1.48h-6.646v2.349c1.759,1.04,3.433,2.3,5.024,3.779l-1.17,1.11
			c-1.322-1.244-2.605-2.291-3.854-3.137v8.154h-1.561V21.132h-5.896L135.211,19.651L135.211,19.651z"/>
	</g>
	<circle cx="99.632" cy="26.734" r="1.375"/>
</g>
</svg>
